<svg xmlns="http://www.w3.org/2000/svg" width="13" height="17" fill="none"><path fill="#FECC00" d="M10.265.475a.542.542 0 0 0-.231-.366.599.599 0 0 0-.436-.103L7.142.383c.067.466-.061.939-.356 1.316-.294.378-.733.63-1.221.704a1.965 1.965 0 0 1-1.39-.31A1.793 1.793 0 0 1 3.409.946l-2.456.37a.605.605 0 0 0-.385.22.546.546 0 0 0-.108.416L2.79 15.937a.54.54 0 0 0 .233.364.597.597 0 0 0 .435.099l2.456-.37a1.736 1.736 0 0 1 .34-1.34c.296-.387.74-.645 1.237-.719a1.966 1.966 0 0 1 1.407.324c.406.282.677.705.755 1.178l2.456-.37a.6.6 0 0 0 .38-.223.541.541 0 0 0 .104-.413L10.265.475Z"/><path fill="#171819" d="m7.257 11.283-.283-1.464a.597.597 0 0 0-.203-.299c-.296-.22-1.098.247-.722-1.44.376-1.686.907-.945 1.272-1.028a.615.615 0 0 0 .312-.205l.883-1.234a.397.397 0 0 0-.034-.498c-.247-.24-.649-.59-.944-.652-.649-.131-2.24.85-2.798 3.34-.557 2.49.473 4.019 1.121 4.15.303.062.815-.104 1.14-.23a.424.424 0 0 0 .202-.18c.044-.08.06-.171.045-.26"/></svg>