<svg width="48" height="27" fill="none" xmlns="http://www.w3.org/2000/svg"><path d="M28.698 4.9805c-.0308.0038-.127.0172-.2116.0287-1.1349.1498-2.1832.887-2.7275 1.918-.6098 1.1537-.5636 2.5225.1211 3.6379.4848.791 1.3157 1.3995 2.2217 1.6299.4924.1248 1.1444.1401 1.6195.0422.5752-.1209 1.1253-.3743 1.5581-.718.0827-.0672.1-.0921.1115-.1612.1347-.885.4925-1.6338 1.106-2.3172.1962-.2189.2001-.2342.1732-.6412-.0885-1.3074-.8541-2.4573-2.0293-3.0429-.5078-.2534-.9714-.3647-1.558-.3782-.1789-.0038-.352-.0019-.3847.002ZM42.0663 4.9806c-.0308.0039-.127.0173-.2116.0288-.729.096-1.4677.455-2.0274.9868-.527.501-.9194 1.221-1.0598 1.939-.0443.238-.077.6585-.0616.8159.0096.0979.0193.1152.1654.2784.2039.2265.329.3858.4598.5855.3173.4914.5462 1.0693.6366 1.6222.0308.1805.0366.1958.1039.2573.125.1132.4674.3282.7059.4453.2751.1325.5617.2304.881.2976.3212.0672.8405.0826 1.1868.0384.8444-.1113 1.5792-.4838 2.1735-1.0981 1.3042-1.3515 1.3772-3.448.1712-4.8935-.5597-.67-1.3522-1.1193-2.2293-1.2671-.1751-.0288-.7733-.0538-.8944-.0365ZM35.1899 8.3402c-1.4657.1997-2.6871 1.2863-3.0584 2.7261-.5578 2.1579.9445 4.3119 3.1776 4.5557 1.9697.215 3.7816-1.221 4.0259-3.1907.0904-.7353-.0308-1.4379-.3693-2.1041-.5501-1.0904-1.5927-1.8315-2.8006-1.9889-.277-.0345-.7021-.0345-.9752.002Z" fill="#FECC00"/><path d="M45.1148 11.9974c-.4424.3609-.9848.6469-1.5234.8024-.856.2458-1.735.2304-2.5775-.0499-.2481-.0806-.6694-.2745-.8925-.407l-.0981-.0595-.0134.1286c-.05.5146-.2097 1.0521-.4482 1.5224-.1847.359-.377.6355-.7021 1.0041-.075.0845-.0788.0941-.0461.1133.2423.1343.8674.716 1.1117 1.0328.4751.6163.8367 1.3573 1.1118 2.2788l.0654.2169H48v-.144c0-.2361-.0366-.7813-.0789-1.1518-.1692-1.5186-.6155-3.0045-1.1733-3.8972-.3655-.5855-.8598-1.1077-1.383-1.4629l-.0865-.0595-.1635.1325ZM25.9839 11.9628c-.3443.2362-.7963.6643-1.0387.983-.1808.238-.3962.572-.5251.8159-.5771 1.0981-.9694 2.7932-1.0329 4.4596l-.0135.359 3.4507-.0038 3.4489-.0058.0788-.2591c.4386-1.4303 1.0772-2.4075 2.0389-3.1235.1058-.0788.1943-.1498.1981-.1575.002-.0076-.0481-.071-.1115-.142-.5982-.6508-.9945-1.5205-1.1003-2.4113l-.023-.1939-.0962.0595c-.2231.1325-.6444.3264-.8925.407-1.2599.4185-2.6217.2419-3.7258-.4818-.127-.0826-.2962-.2035-.3751-.2688-.0788-.0653-.1481-.119-.1539-.1171-.0057 0-.0615.0365-.1269.0806ZM38.2481 15.4722c-.3001.2284-.779.478-1.1714.6105-.7463.2515-1.6004.2937-2.3678.1151-.5348-.1228-1.0868-.3724-1.535-.693-.0981-.071-.1712-.1113-.1885-.1037-.0711.0269-.3885.2592-.5809.4243-.1846.1594-.3943.382-.6039.6451-.1328.1651-.3828.5644-.504.8043-.4039.7948-.7252 1.9467-.8867 3.1907-.0366.2899-.0866.9004-.0866 1.0732v.1324H41.0621l-.0115-.2841c-.0577-1.317-.3809-2.7856-.8444-3.8434-.3886-.8869-.9387-1.58-1.6331-2.0542-.0923-.0633-.175-.1151-.1846-.1132-.0077 0-.0712.0441-.1404.096ZM15.699.7605a.8648.8648 0 0 0-.1238-.3283.9077.9077 0 0 0-.2466-.258.958.958 0 0 0-.3316-.1482.9826.9826 0 0 0-.366-.0158l-3.9299.6022c.1069.746-.0973 1.502-.5689 2.1064-.4716.6043-1.173 1.0087-1.954 1.1266-.781.1179-1.5793-.0601-2.2241-.4959S4.8694 2.255 4.7286 1.5141l-3.9298.5923a.9673.9673 0 0 0-.3448.1178.9218.9218 0 0 0-.271.2348.8734.8734 0 0 0-.1557.3157.8501.8501 0 0 0-.0165.3485l3.7259 22.3765a.8618.8618 0 0 0 .1255.3258.9063.9063 0 0 0 .2472.2553.956.956 0 0 0 .331.1455.9794.9794 0 0 0 .3643.0138l3.9298-.5924c-.1242-.7553.0718-1.5267.545-2.1444.4732-.6178 1.1847-1.0313 1.9781-1.1495.7934-.1183 1.6036.0684 2.2525.5189.6488.4505 1.0831 1.1279 1.2073 1.8833l3.9298-.5924a.959.959 0 0 0 .3419-.1195.914.914 0 0 0 .2674-.2355.8652.8652 0 0 0 .1519-.3152.844.844 0 0 0 .013-.3466L15.699.7605Z" fill="#FECC00"/><path d="m10.8849 18.0528-.4528-2.3429a.9542.9542 0 0 0-.3249-.4772c-.4735-.3521-1.7558.3949-1.1544-2.3034.6014-2.6984 1.4517-1.5137 2.0358-1.6454a.983.983 0 0 0 .4977-.329l1.4136-1.9744a.6343.6343 0 0 0 .1136-.407.6418.6418 0 0 0-.1689-.3894c-.394-.385-1.0369-.9444-1.5104-1.0431-1.0369-.2106-3.5842 1.359-4.476 5.344-.8917 3.985.757 6.43 1.794 6.6406.4838.0987 1.303-.1679 1.8248-.3686a.6779.6779 0 0 0 .3219-.2888.6305.6305 0 0 0 .0722-.4154" fill="#171819"/></svg>