<svg width="48" height="27" fill="none" xmlns="http://www.w3.org/2000/svg"><path d="M32.901 19.3673h-5.6273c-.3077 0-.5571.2334-.5571.5213 0 .288.2494.5214.5571.5214h5.6273c.3077 0 .5571-.2334.5571-.5214 0-.2879-.2494-.5213-.5571-.5213ZM41.3138 19.3673h-5.6273c-.3077 0-.5571.2334-.5571.5213 0 .288.2494.5214.5571.5214h5.6273c.3076 0 .5571-.2334.5571-.5214 0-.2879-.2495-.5213-.5571-.5213ZM41.314 6.3341H27.2737c-.3077 0-.5571.2334-.5571.5213 0 .288.2494.5214.5571.5214H41.314c.3077 0 .5572-.2334.5572-.5214 0-.2879-.2495-.5213-.5572-.5213ZM41.3138 8.9408h-5.6273c-.3077 0-.5571.2334-.5571.5213 0 .288.2494.5214.5571.5214h5.6273c.3076 0 .5571-.2334.5571-.5214 0-.2879-.2495-.5213-.5571-.5213ZM41.3138 11.5474h-5.6273c-.3077 0-.5571.2334-.5571.5213s.2494.5213.5571.5213h5.6273c.3076 0 .5571-.2334.5571-.5213s-.2495-.5213-.5571-.5213ZM41.3138 14.1542h-5.6273c-.3077 0-.5571.2334-.5571.5213s.2494.5213.5571.5213h5.6273c.3076 0 .5571-.2334.5571-.5213s-.2495-.5213-.5571-.5213ZM41.3138 16.7606h-5.6273c-.3077 0-.5571.2334-.5571.5213 0 .288.2494.5214.5571.5214h5.6273c.3076 0 .5571-.2334.5571-.5214 0-.2879-.2495-.5213-.5571-.5213ZM32.901 16.7606h-5.6273c-.3077 0-.5571.2334-.5571.5213 0 .288.2494.5214.5571.5214h5.6273c.3077 0 .5571-.2334.5571-.5214 0-.2879-.2494-.5213-.5571-.5213ZM32.901 8.9408h-5.6273c-.3077 0-.5571.2334-.5571.5213v5.2654c0 .288.2494.5214.5571.5214h5.6273c.3077 0 .5571-.2334.5571-.5214V9.4621c0-.288-.2494-.5213-.5571-.5213Zm-.5572 5.2654h-4.5129V9.9834h4.5129v4.2228Z" fill="#FECC00"/><path d="M46.8857 5.8128h-1.6715v-1.564c0-.5749-.4999-1.0426-1.1143-1.0426H24.488c-.6144 0-1.1143.4677-1.1143 1.0426v16.6826c0 1.4373 1.2497 2.6066 2.7858 2.6066h19.0547c1.5361 0 2.7858-1.1693 2.7858-2.6066V6.8554c0-.5748-.4999-1.0426-1.1143-1.0426Zm0 15.1186c0 .8623-.7498 1.5639-1.6715 1.5639H26.1595c-.9216 0-1.6715-.7016-1.6715-1.5639V4.2488h19.6119v15.9006c0 .7186.6249 1.3033 1.3929 1.3033.3077 0 .5572-.2334.5572-.5213 0-.288-.2495-.5214-.5572-.5214-.1536 0-.2786-.1169-.2786-.2606V6.8554h1.6715v14.076ZM15.699 1.0115a.8648.8648 0 0 0-.1238-.3283.9087.9087 0 0 0-.2465-.258.9594.9594 0 0 0-.3317-.1482.9826.9826 0 0 0-.366-.0158l-3.9298.6022c.1068.746-.0974 1.502-.569 2.1063-.4716.6043-1.173 1.0088-1.954 1.1267-.781.1179-1.5793-.0601-2.2241-.496-.6448-.4357-1.0847-1.0945-1.2255-1.8354l-3.9298.5924a.9675.9675 0 0 0-.3448.1178.922.922 0 0 0-.271.2348.8734.8734 0 0 0-.1557.3157.8501.8501 0 0 0-.0165.3485l3.7259 22.3764a.8617.8617 0 0 0 .1255.3259.906.906 0 0 0 .2472.2552.9544.9544 0 0 0 .331.1456.9772.9772 0 0 0 .3643.0137l3.9298-.5923c-.1242-.7553.0718-1.5267.545-2.1445.4732-.6177 1.1847-1.0312 1.9781-1.1494.7934-.1183 1.6036.0684 2.2525.5189.6488.4505 1.0831 1.1279 1.2073 1.8833l3.9298-.5924a.9572.9572 0 0 0 .3419-.1196.9122.9122 0 0 0 .2674-.2354.8652.8652 0 0 0 .1519-.3152.844.844 0 0 0 .013-.3466L15.699 1.0115Z" fill="#FECC00"/><path d="m10.8849 18.3039-.4528-2.3429a.9542.9542 0 0 0-.3249-.4772c-.4735-.3521-1.7558.3949-1.1544-2.3034.6014-2.6984 1.4517-1.5137 2.0358-1.6454a.983.983 0 0 0 .4977-.329l1.4136-1.9744a.6343.6343 0 0 0 .1136-.407.6418.6418 0 0 0-.1689-.3894c-.394-.385-1.0369-.9444-1.5104-1.0431-1.0369-.2106-3.5842 1.359-4.476 5.344-.8917 3.985.757 6.43 1.794 6.6406.4838.0987 1.303-.1679 1.8249-.3686a.678.678 0 0 0 .3218-.2888.6305.6305 0 0 0 .0722-.4154" fill="#171819"/></svg>