<svg width="51" height="27" fill="none" xmlns="http://www.w3.org/2000/svg"><path d="M34.962 19.407H29.25c-.313 0-.566.236-.566.529 0 .292.253.529.566.529h5.712c.313 0 .566-.237.566-.53 0-.292-.253-.528-.566-.528ZM43.503 19.407H37.79c-.312 0-.565.236-.565.529 0 .292.253.529.565.529h5.713c.312 0 .566-.237.566-.53 0-.292-.254-.528-.566-.528ZM43.503 6.175H29.25c-.313 0-.566.237-.566.53 0 .292.253.529.566.529h14.253c.313 0 .566-.237.566-.53 0-.292-.254-.529-.566-.529ZM43.503 8.822H37.79c-.312 0-.565.237-.565.529 0 .292.253.53.565.53h5.713c.312 0 .566-.238.566-.53 0-.292-.254-.53-.566-.53ZM43.503 11.468H37.79c-.312 0-.565.237-.565.529 0 .292.253.53.565.53h5.713c.312 0 .566-.238.566-.53 0-.292-.254-.53-.566-.53ZM43.503 14.114H37.79c-.312 0-.565.237-.565.53 0 .292.253.529.565.529h5.713c.312 0 .566-.237.566-.53 0-.292-.254-.529-.566-.529ZM43.503 16.76H37.79c-.312 0-.565.237-.565.53 0 .292.253.529.565.529h5.713c.312 0 .566-.237.566-.53 0-.292-.254-.529-.566-.529ZM34.962 16.76H29.25c-.313 0-.566.237-.566.53 0 .292.253.529.566.529h5.712c.313 0 .566-.237.566-.53 0-.292-.253-.529-.566-.529ZM34.962 8.822H29.25c-.313 0-.566.237-.566.529v5.345c0 .293.253.53.566.53h5.712c.313 0 .566-.238.566-.53V9.351c0-.292-.253-.53-.566-.53Zm-.565 5.345h-4.582V9.88h4.582v4.287Z" fill="#FECC00"/><path d="M49.16 5.646h-1.697V4.058c0-.583-.508-1.058-1.132-1.058h-19.91c-.623 0-1.13.475-1.13 1.058v16.936c0 1.46 1.268 2.646 2.828 2.646h19.343c1.56 0 2.829-1.187 2.829-2.646V6.704c0-.583-.508-1.058-1.132-1.058Zm0 15.348c0 .876-.762 1.588-1.697 1.588H28.118c-.936 0-1.697-.712-1.697-1.588V4.058h19.91V20.2c0 .73.634 1.323 1.413 1.323.313 0 .566-.236.566-.529 0-.292-.253-.53-.566-.53-.156 0-.282-.118-.282-.264V6.705h1.696v14.29ZM16.067 1.096a.878.878 0 0 0-.125-.334.923.923 0 0 0-.25-.262.973.973 0 0 0-.709-.166l-3.99.611a2.819 2.819 0 0 1-.577 2.139 3.099 3.099 0 0 1-1.984 1.143 3.191 3.191 0 0 1-2.258-.503A2.912 2.912 0 0 1 4.93 1.861l-3.99.601a.982.982 0 0 0-.35.12.936.936 0 0 0-.274.238.887.887 0 0 0-.175.674L3.923 26.21c.02.117.063.23.128.331a.92.92 0 0 0 .25.26.971.971 0 0 0 .707.16l3.99-.6a2.82 2.82 0 0 1 .552-2.177 3.1 3.1 0 0 1 2.008-1.167c.806-.12 1.628.07 2.287.526a2.909 2.909 0 0 1 1.226 1.912l3.99-.601a.975.975 0 0 0 .346-.121.928.928 0 0 0 .272-.24.857.857 0 0 0 .167-.672L16.067 1.097Z" fill="#FECC00"/><path d="m11.18 18.65-.46-2.378a.968.968 0 0 0-.33-.484c-.48-.358-1.782.4-1.171-2.339.61-2.74 1.473-1.537 2.066-1.67a.998.998 0 0 0 .506-.334l1.435-2.005a.643.643 0 0 0-.056-.808c-.4-.39-1.053-.959-1.534-1.059-1.052-.214-3.638 1.38-4.544 5.425-.905 4.046.769 6.528 1.821 6.742.492.1 1.323-.17 1.853-.375a.688.688 0 0 0 .327-.293.64.64 0 0 0 .073-.421" fill="#171819"/></svg>