<svg width="56" height="27" fill="none" xmlns="http://www.w3.org/2000/svg"><path d="m31.787 3.667-.258.035c-1.383.183-2.66 1.08-3.323 2.337a4.45 4.45 0 0 0 .148 4.432 4.557 4.557 0 0 0 2.706 1.985c.6.152 1.394.17 1.973.052.7-.148 1.371-.456 1.898-.875.1-.082.122-.112.136-.196.164-1.079.6-1.99 1.347-2.823.24-.267.244-.286.211-.781a4.462 4.462 0 0 0-2.472-3.707 4.202 4.202 0 0 0-1.898-.461 6.573 6.573 0 0 0-.468.002ZM48.072 3.667l-.258.036c-.888.117-1.788.554-2.47 1.202a4.574 4.574 0 0 0-1.29 2.362c-.055.29-.094.802-.076.994.012.119.024.14.202.339.248.276.4.47.56.713a5.33 5.33 0 0 1 .776 1.976c.037.22.044.239.126.314.152.138.57.4.86.542.335.162.684.28 1.073.363.392.082 1.024.1 1.446.047a4.415 4.415 0 0 0 2.648-1.338 4.45 4.45 0 0 0 .208-5.962 4.51 4.51 0 0 0-2.716-1.543c-.213-.035-.941-.066-1.089-.045ZM39.695 7.76a4.499 4.499 0 0 0-3.726 3.321c-.68 2.629 1.15 5.253 3.871 5.55 2.4.262 4.607-1.488 4.905-3.887a4.364 4.364 0 0 0-.45-2.563 4.458 4.458 0 0 0-3.412-2.423 5.452 5.452 0 0 0-1.188.002Z" fill="#FECC00"/><path d="M51.786 12.215a5.248 5.248 0 0 1-4.996.917 6.797 6.797 0 0 1-1.087-.496l-.12-.072-.016.156a5.335 5.335 0 0 1-.546 1.855c-.225.437-.46.774-.855 1.223-.092.103-.096.115-.057.138.296.164 1.057.873 1.355 1.258.578.751 1.019 1.654 1.354 2.777l.08.264H55.3v-.176c0-.287-.045-.951-.097-1.403-.206-1.85-.75-3.66-1.429-4.747-.445-.714-1.047-1.35-1.685-1.783l-.105-.072-.2.161ZM28.48 12.173c-.42.288-.97.81-1.265 1.198-.22.29-.483.697-.64.994-.703 1.337-1.18 3.402-1.258 5.432l-.016.438 4.203-.005 4.202-.007.096-.316c.534-1.742 1.312-2.932 2.483-3.805a2.9 2.9 0 0 0 .242-.191.933.933 0 0 0-.136-.174 5.333 5.333 0 0 1-1.34-2.937l-.029-.236-.117.072a6.798 6.798 0 0 1-1.087.496 5.234 5.234 0 0 1-4.539-.587 6.14 6.14 0 0 1-.457-.327 1.416 1.416 0 0 0-.187-.143c-.007 0-.075.045-.155.098ZM43.42 16.448a5.572 5.572 0 0 1-1.426.744 5.4 5.4 0 0 1-2.885.14 5.384 5.384 0 0 1-1.87-.844c-.12-.086-.208-.136-.23-.126-.086.033-.473.316-.707.517-.225.194-.48.465-.736.785a7.38 7.38 0 0 0-.614.98c-.492.969-.883 2.372-1.08 3.887a17.321 17.321 0 0 0-.105 1.308V24h13.082l-.014-.346c-.07-1.605-.464-3.394-1.029-4.682-.473-1.08-1.143-1.925-1.99-2.503a1.344 1.344 0 0 0-.224-.138c-.01 0-.087.054-.171.117ZM16.077 1.096a.88.88 0 0 0-.125-.334.923.923 0 0 0-.25-.262.973.973 0 0 0-.709-.166l-3.99.611a2.819 2.819 0 0 1-.577 2.139 3.099 3.099 0 0 1-1.984 1.143 3.191 3.191 0 0 1-2.258-.503A2.912 2.912 0 0 1 4.94 1.861l-3.99.601a.982.982 0 0 0-.35.12.936.936 0 0 0-.274.238.887.887 0 0 0-.175.674L3.933 26.21c.02.117.063.23.128.331a.92.92 0 0 0 .25.26.971.971 0 0 0 .707.16l3.99-.6a2.82 2.82 0 0 1 .552-2.177 3.1 3.1 0 0 1 2.008-1.167c.806-.12 1.628.07 2.287.526a2.909 2.909 0 0 1 1.226 1.912l3.99-.601a.975.975 0 0 0 .346-.121.928.928 0 0 0 .272-.24.857.857 0 0 0 .167-.672L16.077 1.097Z" fill="#FECC00"/><path d="m11.19 18.65-.46-2.378a.968.968 0 0 0-.33-.484c-.48-.358-1.782.4-1.171-2.339.61-2.74 1.473-1.537 2.066-1.67a.998.998 0 0 0 .506-.334l1.435-2.005a.644.644 0 0 0-.056-.808c-.4-.39-1.053-.959-1.534-1.059-1.052-.214-3.638 1.38-4.544 5.425-.905 4.046.769 6.528 1.821 6.742.492.1 1.323-.17 1.853-.375a.688.688 0 0 0 .327-.293.64.64 0 0 0 .073-.421" fill="#171819"/></svg>