<svg width="25" height="25" fill="none" xmlns="http://www.w3.org/2000/svg"><path d="M14.1302.0274c-.0312.0156-.082.0508-.1093.0821-.0274.0313-.2989.5223-.6036 1.0936-.3047.5693-.5821 1.0818-.6172 1.1385-.1035.1644-.0957.1624-.6407.184l-.4824.0215-.1035-.0509c-.1036-.0509-.1153-.0665-.8126-1.074-.3906-.5615-.7285-1.0486-.7539-1.0818C9.9503.264 9.8507.2152 9.7491.2152c-.084 0-2.293.7355-2.3692.7883-.1133.0802-.1368.1742-.1153.4598.0469.579.1387 1.745.1582 2.013l.0235.2993-.0567.1115c-.0547.1076-.0742.1252-.457.3913-.2207.1526-.4317.2875-.4688.2993-.1602.047-.1797.041-1.4376-.4813-1.291-.536-1.254-.5223-1.4063-.4538-.0742.0352-1.5255 1.8428-1.5548 1.9367-.0156.0568-.0156.094 0 .1506.0156.049.2969.4363.7852 1.08.6602.8724.7637 1.0191.7833 1.1033.0273.1271.0273.1271-.2266.7336-.2247.5419-.2754.6182-.4278.673-.045.0156-.6328.129-1.3106.2503-1.2891.2309-1.295.2328-1.381.3502-.1015.137-.3535 2.4806-.2714 2.5295.0117.0078.5723.2152 1.2442.4617.6719.2465 1.25.4656 1.2832.4852.129.0743.1583.1584.2754.8079.0606.3306.1094.6417.1094.6945a.394.394 0 0 1-.0449.178c-.0293.0567-.3262.3463-.961.9371-.5059.4695-.9356.8823-.957.9136-.0255.0411-.0372.0919-.0352.1584 0 .09.0488.1898.498 1.0643.2755.5301.5235.9898.5528 1.0211.0274.0294.088.0646.1328.0763.0762.0216.17.0039 1.3028-.2523 1.2775-.2896 1.3224-.2954 1.465-.2289.0761.0372.9844.9762 1.039 1.074.0743.1369.0704.1761-.1288.9547-.459 1.7939-.4493 1.7548-.4239 1.8389a.3918.3918 0 0 0 .0664.1271c.0235.0274.4727.2915.9981.5869.8653.4871.965.538 1.045.538.0528 0 .1153-.0156.1485-.0352.0332-.0215.4492-.4343.9278-.9214.4785-.4871.9004-.9019.9414-.9214.1426-.0763.1817-.0724.8965.088.3692.0822.6934.1624.7188.18.1348.088.1426.1056.5587 1.3576.3926 1.1797.4043 1.211.4785 1.2775.043.0391.1074.0743.1504.0822.1777.0332 1.2852-.0372 1.9923-.1272.3203-.0411.3887-.0743.4434-.2211.0176-.0469.1465-.6299.2852-1.295.1679-.7943.2676-1.2325.291-1.2716.0762-.1213.1328-.1506.7286-.3776.6426-.2465.7246-.2641.8672-.1878.0351.0196.4844.3737.9961.7884.5137.4147.9591.7688.9923.7884.043.0254.0879.0333.1621.0274.0996-.0059.1211-.0215.6817-.4461 1.1387-.8627 1.2461-.9468 1.2833-.9996.0214-.0274.0429-.0939.0468-.1467.0098-.0861-.0293-.1996-.4434-1.2873-.25-.6573-.459-1.2246-.4629-1.2618-.0195-.135.0254-.2191.3379-.6495.168-.2289.3243-.4382.3477-.4617.0684-.0763.1856-.1271.295-.1252.0527 0 .6367.0587 1.295.1311l1.1953.1291.084-.0372c.0449-.0215.0977-.0547.1172-.0762.0274-.0313.711-1.8664.8243-2.2126.043-.1272.0156-.2348-.084-.3365-.0391-.0411-.5235-.4069-1.0762-.8138-.9923-.7297-1.004-.7395-1.0528-.8471l-.0489-.1076.0235-.4206c.0312-.5497.0351-.5751.1074-.6808.0586-.0841.1035-.1095 1.1973-.6592.627-.315 1.1524-.585 1.17-.5987.043-.0371.1055-.1663.1055-.2191 0-.0821-.5059-2.3808-.5371-2.4414-.0176-.0333-.0625-.0802-.1036-.1076-.082-.0528.002-.047-1.9786-.1741-.7598-.049-.7735-.0529-.8887-.1624-.084-.0802-.4356-.7434-.4493-.849a.3836.3836 0 0 1 .0157-.1644c.0156-.043.3164-.5653.668-1.16.6133-1.033.6406-1.0838.6406-1.1777-.0019-.0529-.0136-.1174-.0273-.1448-.0254-.049-1.6603-1.7294-1.754-1.8018-.0293-.0234-.0879-.041-.1563-.045l-.1113-.0078-1.1016.6124c-.6055.3364-1.1368.624-1.1798.6397-.1348.0469-.2227.0176-.586-.1859-.3672-.2054-.4062-.2348-.4629-.3463-.0508-.0978-.0488-.0723-.0957-1.4691-.039-1.1542-.041-1.1953-.084-1.2814-.0722-.1467.0703-.1037-1.922-.579C14.5502.0664 14.2552 0 14.2318 0c-.0234.002-.0684.0137-.1016.0274Zm-.752 5.1841c.5372.0705.9825.1702 1.4454.3248 2.4592.8138 4.3421 2.9344 4.8519 5.4619.1113.5537.1367.8197.1367 1.4634.002.6064-.0078.7551-.0879 1.2422-.375 2.2869-1.8653 4.298-3.9533 5.3309-.7911.3913-1.4747.5967-2.4318.7277-.2989.0411-1.3888.0333-1.7189-.0097-1.7071-.2328-3.1955-.9762-4.3557-2.1774-1.6583-1.7176-2.3673-4.0847-1.9337-6.4558.2852-1.5591 1.131-3.0479 2.336-4.114 1.1896-1.0506 2.6409-1.6746 4.2367-1.8194.2949-.0274 1.1875-.0117 1.4746.0254Z" fill="currentColor"/></svg>