<svg width="48" height="18" fill="none" xmlns="http://www.w3.org/2000/svg"><g clip-path="url(#a)" fill="#F5C518"><path d="M-.4444 17.6012h5.0558V.3971H-.4444v17.2041ZM15.3964.397l-1.134 8.0354-.7029-4.3722c-.2067-1.4016-.4016-2.619-.5847-3.6631H6.6314v17.2041h4.288l.0177-11.3577 1.8014 11.3577h3.0536l1.7128-11.609.0118 11.609h4.2762V.3971h-6.3965ZM23.8187 17.6012V.3971h7.8909c1.7837 0 3.2307 1.3569 3.2307 3.0377v11.1288c0 1.6751-1.4411 3.0376-3.2307 3.0376h-7.8909Zm5.8945-14.105c-.2008-.1005-.5847-.1508-1.1399-.1508v11.2852c.7383 0 1.1872-.1229 1.3585-.3853.1712-.2569.2598-.9549.2598-2.0996V5.4729c0-.7762-.0295-1.2731-.0886-1.4965-.059-.2178-.189-.3797-.3898-.4802ZM44.4672 4.7079h.3249c1.8132 0 3.2839 1.3457 3.2839 2.9986v6.8961c0 1.6585-1.4707 2.9986-3.2839 2.9986h-.3249c-1.1104 0-2.0908-.5025-2.6874-1.2731l-.2894 1.0498h-4.5301V.3971h4.8373v5.5225c.6201-.7315 1.5829-1.2117 2.6696-1.2117Zm-1.0336 8.3871V9.0187c0-.6757-.0472-1.1168-.1417-1.3178-.0945-.201-.4785-.335-.7442-.335-.2658 0-.6793.106-.756.2847v6.8962c.0886.1954.4843.3071.756.3071s.6733-.1061.756-.3071c.0886-.1954.1299-.6812.1299-1.4518Z"/></g><defs><clipPath id="a"><path fill="#fff" transform="translate(0 .502)" d="M0 0h48v17H0z"/></clipPath></defs></svg>