<svg width="57" height="20" fill="none" xmlns="http://www.w3.org/2000/svg"><g clip-path="url(#a)" fill="#F5C518"><path d="M-.368 20.117H5.53V-.123H-.368v20.24ZM18.112-.123 16.79 9.33l-.82-5.144a163.685 163.685 0 0 0-.682-4.31h-7.4v20.24h5.002l.021-13.361 2.102 13.362h3.562l1.998-13.658.014 13.658h4.99V-.123h-7.464ZM27.939 20.117V-.123h9.206c2.08 0 3.769 1.596 3.769 3.573v13.093c0 1.97-1.682 3.574-3.77 3.574H27.94Zm6.876-16.594c-.234-.119-.682-.178-1.33-.178v13.277c.862 0 1.386-.145 1.585-.453.2-.303.304-1.124.304-2.47v-7.85c0-.914-.035-1.499-.104-1.761a.855.855 0 0 0-.455-.565ZM52.028 4.948h.38c2.115 0 3.83 1.583 3.83 3.528v8.113c0 1.951-1.715 3.528-3.83 3.528h-.38c-1.295 0-2.439-.591-3.135-1.498l-.337 1.235H43.27V-.123h5.644v6.497a4.062 4.062 0 0 1 3.114-1.426Zm-1.205 9.867V10.02c0-.795-.056-1.314-.166-1.55-.11-.237-.558-.395-.868-.395-.31 0-.793.125-.882.335v8.113c.103.23.565.362.882.362.317 0 .785-.125.882-.362.103-.23.152-.801.152-1.708Z"/></g><defs><clipPath id="a"><path fill="#fff" transform="translate(.15)" d="M0 0h56v20H0z"/></clipPath></defs></svg>