<svg xmlns="http://www.w3.org/2000/svg" width="42" height="16" fill="none"><g fill="#F5C518" clip-path="url(#a)"><path d="M-.389 15.494h4.424V.314H-.389v15.18ZM13.472.314l-.992 7.09-.615-3.858c-.181-1.236-.352-2.31-.512-3.232h-5.55v15.18h3.751L9.57 5.473l1.576 10.021h2.672l1.499-10.243.01 10.243h3.742V.314h-5.597ZM20.841 15.494V.314h6.905c1.56 0 2.827 1.198 2.827 2.68v9.82c0 1.478-1.261 2.68-2.827 2.68H20.84ZM26 3.05c-.176-.089-.512-.133-.997-.133v9.957c.646 0 1.038-.108 1.188-.34.15-.226.228-.842.228-1.852V4.793c0-.685-.026-1.123-.078-1.32a.64.64 0 0 0-.34-.424ZM38.909 4.118h.284c1.587 0 2.873 1.187 2.873 2.646v6.085c0 1.463-1.286 2.645-2.873 2.645h-.284c-.972 0-1.83-.443-2.352-1.123l-.253.926H32.34V.314h4.233v4.873a3.046 3.046 0 0 1 2.336-1.069Zm-.905 7.4V7.922c0-.597-.04-.986-.124-1.163-.082-.178-.418-.296-.65-.296-.233 0-.595.094-.662.252v6.084c.077.173.424.271.661.271.238 0 .59-.093.662-.27.077-.173.113-.602.113-1.282Z"/></g><defs><clipPath id="a"><path fill="#fff" d="M0 .407h42v15H0z"/></clipPath></defs></svg>