<svg xmlns="http://www.w3.org/2000/svg" xml:space="preserve" id="_x32_" fill="#000" version="1.1" viewBox="0 0 512 512"><g id="SVGRepo_iconCarrier"><style>.st0{fill:#000}</style><path d="M497.946 86.465c-7.768 0-14.055 6.285-14.055 14.054v312.41c-.012 11.282-9.127 20.368-20.368 20.382H48.477c-11.241-.014-20.355-9.1-20.368-20.382V85.668L62.01 99.71a14.177 14.177 0 0 0 10.76 0l47.97-19.86 47.955 19.86a14.177 14.177 0 0 0 10.76 0l47.941-19.86 47.943 19.86a14.141 14.141 0 0 0 10.746 0l48.01-19.86 48.052 19.86a14.111 14.111 0 0 0 10.734 0l33.996-14.054v296.173c0 7.768 6.286 14.054 14.054 14.054s14.054-6.286 14.054-14.054V64.641a14.02 14.02 0 0 0-6.244-11.679 13.953 13.953 0 0 0-13.176-1.304l-48.052 19.86-48.051-19.86a14.001 14.001 0 0 0-10.734 0l-48.01 19.846-47.941-19.846a14.072 14.072 0 0 0-10.762 0l-47.942 19.846-47.953-19.846a14.066 14.066 0 0 0-10.76 0L67.39 71.504 19.434 51.658a14.055 14.055 0 0 0-13.19 1.29A14.064 14.064 0 0 0 0 64.641V412.93c0 26.791 21.699 48.477 48.477 48.491h415.046c26.778-.014 48.477-21.7 48.477-48.491V100.52c0-7.77-6.299-14.055-14.054-14.055z" class="st0"/><path d="M81.197 166.757v125.612H211.97V166.757H81.197zm108.291 103.131h-85.81v-80.649h85.81v80.649zM260.351 166.564h111.763v22.482H260.351zM260.351 222.673h111.763v22.482H260.351zM260.351 278.808h111.763v22.482H260.351zM81.197 334.916h290.917v22.482H81.197z" class="st0"/></g></svg>