<?xml version="1.0" standalone="no"?>
<!DOCTYPE svg PUBLIC "-//W3C//DTD SVG 20010904//EN"
 "http://www.w3.org/TR/2001/REC-SVG-20010904/DTD/svg10.dtd">
<svg version="1.0" xmlns="http://www.w3.org/2000/svg"
 width="512.000000pt" height="512.000000pt" viewBox="0 0 512.000000 512.000000"
 preserveAspectRatio="xMidYMid meet">

<g transform="translate(0.000000,512.000000) scale(0.100000,-0.100000)"
fill="#000000" stroke="none">
<path d="M2970 4010 c-217 -47 -398 -144 -541 -290 l-77 -79 -61 25 c-238 96
-556 103 -819 18 -340 -111 -559 -390 -539 -689 14 -201 117 -381 269 -469 21
-11 38 -24 38 -27 0 -3 -49 -115 -109 -249 -60 -134 -108 -247 -105 -252 9
-13 173 -109 248 -144 129 -59 243 -85 402 -91 88 -4 173 -1 224 6 45 7 84 10
86 8 3 -2 48 -211 102 -465 53 -253 100 -461 104 -463 4 -2 118 149 253 336
135 187 249 341 254 343 4 1 176 -94 382 -212 205 -118 375 -213 376 -212 2 2
-42 216 -97 476 -56 260 -100 473 -98 475 2 1 43 10 93 19 299 59 526 225 652
479 49 99 137 348 126 357 -8 7 -592 150 -612 150 -6 0 -30 -42 -54 -93 -77
-165 -157 -227 -293 -227 -85 0 -153 30 -209 92 -59 65 -79 119 -79 218 -1
106 25 169 94 234 54 51 123 76 208 76 103 0 147 -24 235 -128 16 -18 32 -32
37 -30 21 7 492 382 497 395 9 22 -197 225 -292 288 -92 62 -201 108 -305 130
-98 21 -283 18 -390 -5z m390 -120 c94 -31 177 -80 250 -148 36 -33 63 -62 60
-64 -9 -7 -195 -151 -207 -161 -9 -6 -24 0 -47 21 -156 137 -373 147 -551 27
-71 -49 -144 -141 -175 -222 -31 -80 -39 -234 -16 -323 46 -182 161 -315 319
-369 220 -76 448 10 549 205 18 35 39 64 46 64 7 0 69 -14 138 -31 142 -36
135 -25 83 -136 -81 -170 -217 -289 -404 -352 -322 -107 -674 -19 -870 219
-58 71 -58 71 -51 5 31 -281 -220 -501 -632 -556 -116 -15 -288 -6 -380 20
-89 26 -202 76 -202 90 0 5 24 64 53 131 59 136 45 129 162 87 206 -74 420
-75 564 -3 90 46 135 129 112 206 -24 82 -86 98 -416 110 -164 6 -259 13 -300
24 -150 40 -251 120 -296 232 -32 82 -33 224 -1 304 67 170 262 302 509 345
174 30 400 11 531 -45 28 -12 52 -24 52 -25 0 -1 -9 -22 -19 -46 -11 -24 -29
-82 -41 -129 -12 -47 -23 -86 -25 -88 -2 -2 -42 10 -89 27 -185 65 -382 65
-516 -2 -100 -49 -136 -127 -95 -206 26 -51 75 -62 320 -73 345 -15 457 -38
564 -119 37 -28 51 -35 47 -22 -43 138 -49 319 -16 447 74 288 301 496 620
567 113 25 277 20 370 -11z"/>
</g>
</svg>
