<svg width="26" height="25" fill="none" xmlns="http://www.w3.org/2000/svg"><path d="M16.023.15c-1.706.37-3.128 1.132-4.253 2.28l-.605.621-.48-.196c-1.87-.755-4.37-.81-6.438-.142C1.574 3.586-.147 5.78.01 8.13c.11 1.58.92 2.995 2.115 3.686.165.087.298.19.298.213 0 .023-.385.904-.857 1.957-.471 1.054-.849 1.942-.825 1.981.07.103 1.36.857 1.95 1.132 1.014.464 1.91.668 3.16.716.692.031 1.36.008 1.76-.048.355-.055.661-.078.677-.062.023.015.377 1.658.802 3.655.416 1.989.786 3.624.817 3.64.032.016.928-1.172 1.99-2.642 1.06-1.47 1.957-2.68 1.996-2.696.031-.008 1.383.739 3.003 1.667 1.611.927 2.948 1.674 2.956 1.666.015-.015-.33-1.698-.763-3.742-.44-2.044-.786-3.718-.77-3.734.015-.008.338-.078.73-.15 2.351-.463 4.136-1.768 5.126-3.765.386-.778 1.077-2.735.99-2.806-.062-.055-4.653-1.18-4.81-1.18-.047 0-.236.33-.425.732-.605 1.297-1.234 1.784-2.303 1.784-.668 0-1.203-.236-1.643-.723-.464-.511-.621-.935-.621-1.714-.008-.833.197-1.328.739-1.84.424-.4.967-.597 1.635-.597.81 0 1.156.189 1.847 1.006.126.142.252.252.291.236.165-.055 3.868-3.003 3.907-3.105.071-.173-1.548-1.769-2.295-2.264A7.001 7.001 0 0 0 19.089.111c-.77-.165-2.224-.141-3.066.04Zm3.066.944a5.263 5.263 0 0 1 1.966 1.163c.282.26.495.488.471.503-.07.055-1.533 1.187-1.627 1.266-.07.047-.189 0-.37-.165-1.226-1.077-2.932-1.156-4.331-.212-.558.385-1.132 1.108-1.376 1.745-.243.629-.306 1.84-.126 2.54.362 1.43 1.266 2.475 2.508 2.9 1.73.597 3.522-.079 4.316-1.612.141-.275.306-.503.362-.503.055 0 .542.11 1.084.244 1.117.283 1.062.196.653 1.069-.637 1.336-1.706 2.272-3.176 2.767-2.531.841-5.299.15-6.84-1.721-.455-.559-.455-.559-.4-.04.243 2.21-1.73 3.939-4.969 4.371-.911.118-2.264.047-2.987-.157-.7-.205-1.588-.598-1.588-.708 0-.039.189-.503.417-1.03.464-1.069.354-1.013 1.273-.683 1.62.581 3.302.59 4.434.023.708-.361 1.061-1.014.88-1.62-.188-.644-.676-.77-3.27-.864-1.289-.047-2.036-.102-2.358-.189-1.18-.314-1.973-.943-2.327-1.823-.252-.645-.26-1.761-.008-2.39.527-1.337 2.06-2.374 4.001-2.712 1.368-.236 3.145-.087 4.175.353.22.095.409.189.409.197 0 .008-.071.173-.15.362-.086.188-.228.644-.322 1.014s-.18.676-.197.691c-.015.016-.33-.078-.7-.212-1.454-.51-3.002-.51-4.056.016-.786.385-1.069.998-.746 1.62.204.4.59.487 2.515.573 2.712.118 3.593.299 4.434.936.29.22.4.275.37.173-.339-1.085-.386-2.508-.126-3.514.581-2.264 2.366-3.9 4.873-4.458.889-.196 2.178-.157 2.91.087Z" fill="#fff"/></svg>