<svg width="48" height="30" fill="none" xmlns="http://www.w3.org/2000/svg"><g clip-path="url(#a)"><path d="M21.8449 29.6448c-.098 0-.2449 0-.3429-.049a1.7885 1.7885 0 0 1-1.3714-1.3714l-.9796-4.7021C9.1102 25.6285 8.2775 25.8244 8.1306 25.8734c-.8326.1469-1.6163.1469-2.4.0489-.8816-.1469-1.7143-.4408-2.449-.8816-.7347-.4408-1.4204-1.0775-1.9102-1.8122-.5387-.7347-.8816-1.6164-1.1265-2.547C0 19.7019 0 18.7713.1469 17.8897c.196-.8816.5388-1.7143 1.0286-2.449.4898-.7347 1.1265-1.3224 1.8612-1.8122.7347-.4898 1.5674-.8327 2.449-1.0286.6857-.1469 1.3715-.1959 1.9592-.1469.196 0 .4408.0489.6367.0979l.147-.2939c-.4898-.5877-.7837-1.2734-.9796-2.1061-.147-.7347-.147-1.5183.049-2.204.1959-.6858.4898-1.3225.9306-1.9103.4408-.5388.9796-1.0285 1.6163-1.3714.5878-.3429 1.2735-.5878 2.0082-.7347 1.0285-.2449 2.0571-.2449 2.9877-.098 0-.3428.098-.6367.2939-.9306.2449-.3918.6857-.6857 1.1755-.7836L24.5388.355c.9796-.196 1.9592.4408 2.1551 1.4204l.0979.4898 1.8613-.3918c.3918-.147.7836-.294 1.2245-.3919.8816-.1959 1.7142-.1959 2.4979-.098.7347.098 1.4694.343 2.1061.6858l1.1755.6367c.6368.3429.9307 1.1265.6368 1.7633l-.3919 1.0286c.4409.5387.7837 1.2244.9307 1.9591l6.9551-1.4693c1.0775-.245 2.1061.4408 2.351 1.5183l1.7143 7.9347c.0979.5388 0 1.0286-.2939 1.4694-.2939.4408-.7347.7347-1.2245.8327 0 0-8.8653 1.8612-8.9633 1.9102-.7836.1469-1.5673.1959-2.253.0979h-.098l-1.2245 1.5184c-.2449.2939-.5877.4898-.9796.5388-.3918.0489-.7836-.098-1.0775-.3429l-.6368-.5388c-.0979.049-.1959.049-.2449.049l.9796 4.702c.147.6858-.1469 1.3715-.6857 1.8123-.5877.3918-1.3224.4408-1.9592.098l-3.5755-2.1062-2.351 3.4286c-.3428.4408-.8816.7347-1.4204.7347Z" fill="#fff"/><path fill-rule="evenodd" clip-rule="evenodd" d="m16.9469 3.9795 4.9959 23.3633 3.1837-4.5061 4.751 2.7918-4.9959-23.3143-7.9347 1.6653Z" fill="#171819"/><path fill-rule="evenodd" clip-rule="evenodd" d="m45.3061 12.6978-.6857.147-.3918-1.7633.6857-.147-.6368-3.0367-9.6489 2.0572c.3918-.5878.5387-1.3225.3918-2.0572-.1469-.5877-.3918-1.0286-.7347-1.3714-.1959-.147-.3918-.2939-.6367-.3918 0 0 0-.049.049-.049l.3918-1.0776.2939-.7836-.7347-.3919c-.4408-.2449-.9306-.3918-1.4694-.4898-.5388-.098-1.1265-.049-1.7633.098-.4898.098-.8816.2449-1.2245.4898-.2938.1959-.5877.3918-.7836.6367l-.098-.4898-11.8041 2.498h-.049l-.2938-.147c-1.0776-.5877-2.3511-.7347-3.7715-.4408-.5387.098-1.0285.2939-1.4204.5388-.4408.2449-.7836.5388-1.0775.8816a2.6697 2.6697 0 0 0-.5878 1.1755c-.098.4408-.098.8817-.049 1.3225.147.6857.4409 1.1755.8817 1.5673.1959.1959.4408.3429.6857.4408-.098.098-.1959.196-.2939.3429l-.8816 1.9592v.049c.098.0979.5388.3918.7347.4898.2449.1469.4898.2449.7347.3428l-1.5674.3429c-.2939-.2449-.6367-.3919-.9796-.5388-.3918-.1469-.7837-.2449-1.1755-.2939-.4408-.049-.8816 0-1.3714.098-.6368.1469-1.2735.3918-1.8123.7347-.5387.3428-.9796.7836-1.3224 1.2734-.3429.4898-.5878 1.0776-.7347 1.7143-.147.6368-.098 1.2735.049 1.9592.098.5388.3428 1.1755.6857 1.6653.3918.5388.8326.9306 1.3714 1.2735.5388.3428 1.1265.5388 1.7633.6367.5388.098 1.1265.098 1.7143 0 .049 0 22.6775-4.8 22.6775-4.8.3429-.049.6368-.1959.9306-.2939.049-.0489.147-.0489.196-.0979l.3428.2939.7347.6367.6367-.7837.6368-.7836.4408-.5388c.3428.1469.6857.2449 1.0775.2939.4898.0489 1.0286.0489 1.6164-.098.0979 0 8.9632-1.9102 8.9632-1.9102l-.6857-3.1837Z" fill="#171819"/><path fill-rule="evenodd" clip-rule="evenodd" d="M14.2041 13.8733c-.7347.147-1.3714.1959-1.9592.098-.5388-.098-1.0286-.2449-1.4204-.5388l.5877-1.2735h.049c.2939.196.6857.3429 1.1266.4409.4408.0979.9795.0979 1.5183 0 .4898-.098.7837-.2449.9796-.4898.1959-.2449.2449-.4409.1959-.6858-.0489-.2449-.1959-.3918-.4898-.4408-.2449-.049-.5387-.0979-.8816-.0979h-1.1265c-.3919 0-.7837-.049-1.1266-.147-.3428-.0979-.6367-.2449-.9306-.4898-.2449-.1959-.4408-.5387-.5387-.9796a2.6622 2.6622 0 0 1 0-.8816c.0979-.2939.1959-.5388.3918-.7837s.4408-.4898.7837-.6367c.3428-.196.7347-.3429 1.1755-.4408 1.1755-.245 2.2041-.147 3.0857.3428l-.5878 1.2245c-.3428-.1959-.7347-.2938-1.1265-.3428-.4408-.049-.8327-.049-1.2245.049-.3428.098-.6367.1959-.7837.3918-.1959.196-.2449.3918-.1959.6367.049.196.1959.3429.4898.4408.2449.049.5388.098.8816.098.3429 0 .6858 0 1.1266.049.3918 0 .7837.049 1.1265.147.3429.0979.6857.2448.9306.4897.2449.2449.4408.5388.5388.9796.049.3429.049.6367 0 .9306-.049.2939-.1959.5878-.3918.8327-.196.2449-.4898.4898-.8327.6857-.4408.1469-.8326.2939-1.3714.3918ZM17.9265 12.9918l-1.2734-5.9265 4.4571-.9307.2449 1.1266-3.1347.6857.2449 1.1755 2.449-.5388.2449 1.1265-2.449.5388.2939 1.3225 3.1347-.6368.2449 1.1266-4.4572.9306ZM27.3306 10.9836l-3.7224-3.2817.8326 3.9184-1.3224.2939-1.2735-5.9266 1.4694-.2938 3.6245 3.1836-.7837-3.7714 1.3224-.2939 1.2735 5.9266-1.4204.2449ZM31.8857 10.1509c-.5877.098-1.0775.147-1.5673.049-.4409-.0979-.8327-.1959-1.1266-.3918l.3919-1.1265h.0489c.098.049.2449.098.3429.1469.1469.049.3429.098.5388.147.1959.049.3918.049.5877.049.196 0 .3919 0 .6368-.049.3918-.098.6367-.196.8326-.392.147-.1958.1959-.3428.1959-.5877-.0489-.1959-.1959-.2938-.3918-.3918-.1959-.049-.4408-.098-.7347-.098h-.8816c-.2939 0-.6368-.049-.8817-.098-.2938-.0979-.5387-.1958-.7346-.3918-.196-.1959-.3429-.4408-.4409-.8326a1.858 1.858 0 0 1 0-.7347c.049-.2449.196-.4898.3429-.6857.1469-.196.3918-.3919.6857-.5388.2449-.147.5878-.2939.9796-.3429.4898-.098.9796-.1469 1.4204-.049.3918.049.7837.196 1.1265.392l-.3918 1.0285c-.2449-.147-.5878-.245-.8816-.2939-.3429-.049-.6857-.049-1.0286.049-.2939.049-.5388.1959-.6857.3428-.147.147-.1959.3429-.1959.5388.0489.196.1469.2939.3918.3429.1959.049.4408.049.6857.049h.8816c.2939 0 .6368.049.8817.1469.2939.098.5388.196.7347.3918.1959.196.3428.4898.4408.8327.098.5877 0 1.0775-.3429 1.5184-.4408.4897-1.0285.7836-1.8612.9795ZM6.1224 22.6408c-.4897-.098-.9795-.2449-1.3714-.4898-.3918-.2449-.7837-.5878-1.0775-.9796-.294-.3918-.4898-.8816-.6368-1.4694-.098-.5388-.147-1.0775-.049-1.5673.098-.4898.294-.9306.5878-1.3715.2939-.3918.6367-.7347 1.0776-1.0285.4408-.2939.9306-.4898 1.4693-.5878.3919-.0979.7837-.0979 1.0776-.0979.3428.0489.6367.0979.9306.1959.2939.0979.5388.2449.7347.4408.196.1469.3429.2939.5388.4898v.0979l-.9796.7837c-.049.049-.098.049-.147 0-.1959-.1959-.4897-.3918-.7836-.4898-.3429-.1469-.7347-.1959-1.1266-.0979-.3428.0489-.6367.1959-.9306.3918-.2449.1959-.4898.3918-.6367.6857-.147.2449-.2939.5878-.3429.8816-.049.3429-.049.6858.049 1.0286.098.3429.196.6857.3919.9306.1959.2939.3918.4898.6367.6857.2449.196.5388.2939.8816.3429.2939.049.6368.049.9796 0 .3918-.098.7347-.2449.9796-.5388.2449-.2449.3918-.4898.4898-.7837 0-.0489.049-.0979.098-.0489l1.2245.2938c.0489 0 .0489.049.0489.049-.0979.1959-.1959.4408-.2939.6368-.1469.2449-.2938.4898-.5387.6857-.196.1959-.4408.3918-.7347.5877-.2939.147-.6367.2939-1.0286.3919-.4898.0489-1.0286.0489-1.5183-.049ZM14.1551 17.5468c-.1469.1959-.3429.2939-.5878.3429l-1.4694.2939-.3918-1.5184 1.4694-.2939c.2939-.049.4898-.049.6857.098.1959.0979.2939.2939.3429.4898.0979.1959.0979.3918-.049.5877Zm.3918 1.2245.098-.049c.1469-.0489.2939-.1469.4408-.2938.1469-.098.2449-.2939.3429-.4409.0979-.1959.1469-.3918.1959-.5877.049-.2449 0-.4898-.049-.7347s-.1469-.4898-.2939-.7347a2.8059 2.8059 0 0 0-.5388-.5388c-.1959-.1469-.4408-.2449-.7346-.2939-.2939-.0489-.5878-.0489-.9307.049l-2.9877.6368 1.2735 5.9265 1.3224-.2939-.4408-2.0571 1.0286-.196 1.6653 1.8123 1.5183-.3429-1.9102-1.8612ZM17.2408 20.4857l-1.2735-5.9266 1.3225-.2938 1.2735 5.9265-1.3225.2939ZM21.0122 19.702l-1.0285-4.8-1.7143.3428-.2449-1.1265 4.751-1.0286.2449 1.1266-1.7143.3428 1.0286 4.8-1.3225.3429ZM24.8326 18.8693l-1.2734-5.9265 1.3224-.2939 1.2735 5.9266-1.3225.2938ZM31.249 15.5877c-.147.3918-.3429.6367-.7347.9306-.2449.1469-.3429.1959-.5388.2449h-.098c-.2938.0489-.5387.0489-.7836 0-.2449-.049-.4898-.147-.6857-.2939-.196-.147-.3429-.3429-.4898-.5388-.147-.1959-.2449-.4408-.2939-.7347-.049-.2449-.049-.5388-.049-.7837.049-.2449.098-.4898.2449-.6857.098-.1959.2939-.3918.4898-.5387.1959-.147.4408-.2449.7347-.2939.2939-.049.5388-.049.7837 0s.4898.1469.6857.2939c.1959.1469.3428.3428.4898.5387.1469.1959.2449.4898.2939.7347.0979.3919.0489.7347-.049 1.1266Zm1.0286.7836c.1959-.3428.3428-.6857.3918-1.0775.049-.3919.049-.7837-.049-1.2245-.098-.4408-.2449-.8327-.4898-1.1755-.2449-.3429-.5388-.6368-.8816-.8327-.3429-.1959-.7347-.3428-1.1266-.4408-.4408-.049-.8816-.049-1.3224.049-.4898.0979-.8816.2939-1.2245.4898a3.7665 3.7665 0 0 0-.8816.8816c-.1959.3429-.3919.7347-.4408 1.1265-.098.3919-.049.8327.0489 1.2735.098.4408.2449.8327.4898 1.1755.2449.3429.5388.6368.8817.8327.3428.1959.7347.3428 1.1265.4408.4408.049.8816.049 1.3714-.049.2939-.049.5388-.1469.7837-.2449.2449-.0979.4408-.2449.6367-.3918l.049-.049.8816.7347.6368-.7837-.8816-.7347ZM40.3102 15.5877l-1.2735-5.9265 4.4572-.9306.2449 1.1265-3.1347.6368.2449 1.1755 2.449-.5388.2448 1.1265-2.4489.5388.2938 1.3224 3.1347-.6367.2449 1.1265-4.4571.9796ZM36.7837 16.4694c-.4898.0979-.8817.1469-1.2735.0979-.3918-.049-.6857-.1469-.9796-.3428-.2939-.147-.4898-.3919-.6857-.6858-.1959-.2938-.2939-.5877-.3918-.9795l-.7837-3.5756 1.3224-.2938.7347 3.4775c.098.4408.2939.7347.5878.9796.2939.1959.6857.2449 1.1755.1469.4408-.0979.7837-.2938.9796-.6367.1959-.2939.2449-.6857.1469-1.1265l-.7347-3.4776 1.3225-.2938.7837 3.5755c.0979.3428.0979.7347.0489 1.0285-.0489.3429-.1469.6368-.3428.8817s-.4408.4898-.7837.6857c-.2449.2939-.6367.4408-1.1265.5388Z" fill="#fff"/></g><defs><clipPath id="a"><path fill="#fff" transform="translate(0 .502)" d="M0 0h48v28.898H0z"/></clipPath></defs></svg>